<svg width="28" height="30" viewBox="0 0 28 30" fill="none" xmlns="http://www.w3.org/2000/svg">
<path d="M22 16H6C5.73478 16 5.48043 15.8946 5.29289 15.7071C5.10536 15.5196 5 15.2652 5 15V9C5 6.61305 5.94821 4.32387 7.63604 2.63604C9.32387 0.948212 11.6131 0 14 0C16.3869 0 18.6761 0.948212 20.364 2.63604C22.0518 4.32387 23 6.61305 23 9C23 9.26522 22.8946 9.51957 22.7071 9.70711C22.5196 9.89464 22.2652 10 22 10C21.7348 10 21.4804 9.89464 21.2929 9.70711C21.1054 9.51957 21 9.26522 21 9C21 7.14348 20.2625 5.36301 18.9497 4.05025C17.637 2.7375 15.8565 2 14 2C12.1435 2 10.363 2.7375 9.05025 4.05025C7.7375 5.36301 7 7.14348 7 9V14H22C22.2652 14 22.5196 14.1054 22.7071 14.2929C22.8946 14.4804 23 14.7348 23 15C23 15.2652 22.8946 15.5196 22.7071 15.7071C22.5196 15.8946 22.2652 16 22 16Z" fill="#31463C"/>
<path d="M27 14H1C0.447715 14 0 14.4477 0 15V29C0 29.5523 0.447715 30 1 30H27C27.5523 30 28 29.5523 28 29V15C28 14.4477 27.5523 14 27 14Z" fill="#31463C"/>
<path d="M8 26H5C4.73478 26 4.48043 25.8946 4.29289 25.7071C4.10536 25.5196 4 25.2652 4 25C4 24.7348 4.10536 24.4804 4.29289 24.2929C4.48043 24.1054 4.73478 24 5 24H7V23H5C4.73478 23 4.48043 22.8946 4.29289 22.7071C4.10536 22.5196 4 22.2652 4 22V19C4 18.7348 4.10536 18.4804 4.29289 18.2929C4.48043 18.1054 4.73478 18 5 18H8C8.26522 18 8.51957 18.1054 8.70711 18.2929C8.89464 18.4804 9 18.7348 9 19C9 19.2652 8.89464 19.5196 8.70711 19.7071C8.51957 19.8946 8.26522 20 8 20H6V21H8C8.26522 21 8.51957 21.1054 8.70711 21.2929C8.89464 21.4804 9 21.7348 9 22V25C9 25.2652 8.89464 25.5196 8.70711 25.7071C8.51957 25.8946 8.26522 26 8 26ZM15.5 26H12.5C12.2348 26 11.9804 25.8946 11.7929 25.7071C11.6054 25.5196 11.5 25.2652 11.5 25C11.5 24.7348 11.6054 24.4804 11.7929 24.2929C11.9804 24.1054 12.2348 24 12.5 24H14.5V23H12.5C12.2348 23 11.9804 22.8946 11.7929 22.7071C11.6054 22.5196 11.5 22.2652 11.5 22V19C11.5 18.7348 11.6054 18.4804 11.7929 18.2929C11.9804 18.1054 12.2348 18 12.5 18H15.5C15.7652 18 16.0196 18.1054 16.2071 18.2929C16.3946 18.4804 16.5 18.7348 16.5 19C16.5 19.2652 16.3946 19.5196 16.2071 19.7071C16.0196 19.8946 15.7652 20 15.5 20H13.5V21H15.5C15.7652 21 16.0196 21.1054 16.2071 21.2929C16.3946 21.4804 16.5 21.7348 16.5 22V25C16.5 25.2652 16.3946 25.5196 16.2071 25.7071C16.0196 25.8946 15.7652 26 15.5 26ZM23 26H20C19.7348 26 19.4804 25.8946 19.2929 25.7071C19.1054 25.5196 19 25.2652 19 25V19C19 18.7348 19.1054 18.4804 19.2929 18.2929C19.4804 18.1054 19.7348 18 20 18C20.2652 18 20.5196 18.1054 20.7071 18.2929C20.8946 18.4804 21 18.7348 21 19V24H23C23.2652 24 23.5196 24.1054 23.7071 24.2929C23.8946 24.4804 24 24.7348 24 25C24 25.2652 23.8946 25.5196 23.7071 25.7071C23.5196 25.8946 23.2652 26 23 26Z" fill="white"/>
</svg>
